<?xml version="1.0" encoding="utf-8"?>
<!-- Svg Vector Icons : http://www.onlinewebfonts.com/icon -->
<!DOCTYPE svg PUBLIC "-//W3C//DTD SVG 1.1//EN" "http://www.w3.org/Graphics/SVG/1.1/DTD/svg11.dtd">
<svg version="1.1" xmlns="http://www.w3.org/2000/svg" xmlns:xlink="http://www.w3.org/1999/xlink" x="0px" y="0px" viewBox="0 0 1000 1000" enable-background="new 0 0 1000 1000" xml:space="preserve">
<g><g transform="translate(0.000000,502.000000) scale(0.100000,-0.100000)"><path d="M4561,4807.5c-927.2-82.4-1820-436.8-2588.2-1028.8c-373.6-287.4-856.3-825.7-1138-1268.2c-120.7-187.7-354.4-668.6-442.5-908.1C168.2,997.1,64.7,255.7,110.7-388c24.9-364,61.3-580.5,147.5-925.3c88.1-341,174.3-572.8,354.4-936.8c252.9-513.4,532.6-904.2,940.6-1306.6c542.2-534.5,1107.3-887,1856.4-1155.2l206.9-74.7l72.8,137.9c176.2,341,467.4,676.3,703.1,816.1c218.4,128.3,341,162.8,597.7,162.8c256.7,0,379.3-34.5,597.7-162.8c235.6-139.9,547.9-505.8,712.7-835.3c67.1-136,32.5-134.1,365.9-17.2c285.5,101.5,775.9,346.7,1034.5,519.2c559.4,371.7,1040.3,856.4,1404.2,1408.1c153.3,233.7,402.3,731.8,501.9,1003.8c222.2,607.3,329.5,1358.3,281.6,1998.1c-90,1251-607.3,2354.5-1505.8,3218.5C7365.7,4441.6,5969.1,4932.1,4561,4807.5z M5580.2,4395.7c988.5-116.9,1923.4-588.1,2649.5-1331.5c706.9-728,1132.2-1618.8,1252.9-2632.3c32.6-260.5,26.8-804.6-9.6-1092C9270-2230.9,8243.1-3591.1,6787.1-4215.7c-214.6-92-226.1-95.8-251-61.3c-339.1,486.6-565.1,697.3-931.1,867.8c-231.8,109.2-408,141.8-689.7,128.4c-164.8-5.7-268.2-21.1-356.3-51.7c-406.1-134.1-754.8-411.9-1026.9-818l-105.4-155.2l-147.5,59.4c-365.9,149.4-768.2,385.1-1101.6,651.4C1279.3-2880.4,677.8-1811.4,526.4-660c-36.4,270.1-42.1,839.1-11.5,1092c99.6,812.3,390.8,1546,871.7,2189.7c189.7,254.8,649.4,718.4,892.7,900.4c385.1,287.4,793.1,505.8,1212.7,653.3C4189.4,4418.6,4821.6,4485.7,5580.2,4395.7z"/><path d="M4712.4,3771.1c-283.5-99.6-488.5-325.7-565.1-622.6C3992,2554.6,4520.8,1974.1,5130,2069.9c756.7,118.8,1011.5,1072.8,415.7,1557.5c-160.9,128.4-283.5,170.5-517.3,180.1C4865.6,3813.3,4817.7,3807.5,4712.4,3771.1z M5222,3376.5c90-46,193.5-155.2,228-241.4c82.4-199.2,42.1-388.9-111.1-538.3c-139.9-136-308.4-178.2-496.2-120.7c-86.2,24.9-233.7,147.5-274,226.1c-139.8,270.1-13.4,595.8,270.1,701.2C4938.4,3439.7,5122.3,3428.2,5222,3376.5z"/><path d="M2652.9,2918.6c-323.8-115-526.8-348.7-595.8-682c-84.3-398.5,153.3-829.5,534.5-975.1c241.4-92,482.8-80.4,716.5,34.5c178.2,86.2,310.4,220.3,402.3,406.1c63.2,126.4,72.8,162.8,78.5,319.9c17.3,385.1-168.6,697.3-507.7,858.3c-116.9,53.7-151.3,61.3-331.4,65.1C2794.7,2951.2,2727.6,2943.5,2652.9,2918.6z M3130,2520.1c302.7-145.6,371.7-549.8,136-787.4c-176.3-174.3-471.3-185.8-664.8-26.8c-38.3,32.6-92,101.5-118.8,157.1c-128.4,256.7-3.8,576.6,266.3,676.3C2848.3,2575.7,3034.2,2566.1,3130,2520.1z"/><path d="M6810.1,2918.6c-147.5-53.6-258.6-126.4-367.8-239.5c-176.3-187.7-245.2-379.3-231.8-657.1c5.7-157.1,15.3-193.5,78.5-321.8c157.1-318,438.7-496.2,789.3-498.1c490.4-3.8,881.2,387,877.4,877.4c-1.9,352.5-180.1,632.2-500,789.3c-136,69-157.1,72.8-346.8,78.5C6951.9,2951.2,6884.9,2943.5,6810.1,2918.6z M7243.1,2539.3c429.1-147.5,429.1-772.1,0-919.6c-321.8-109.2-653.3,122.6-653.3,459.8C6589.8,2412.8,6923.2,2648.5,7243.1,2539.3z"/><path d="M1877.1,861.1c-141.8-26.8-327.6-130.3-442.5-245.2c-329.5-329.5-341-871.7-26.8-1206.9c402.3-431,1072.8-373.6,1390.8,116.9c99.6,155.2,139.8,316.1,128.3,526.8c-5.7,147.5-17.2,191.6-78.5,319.9C2672.1,742.3,2281.3,939.6,1877.1,861.1z M2269.8,433.9c160.9-74.7,256.7-212.7,272-398.5c19.2-193.5-90-385-270.1-480.8c-109.2-57.5-316.1-57.5-425.3,0c-367.8,195.4-367.8,701.2,1.9,885.1C1959.4,495.2,2145.3,493.3,2269.8,433.9z"/><path d="M7735.4,851.5C7061.1,688.7,6835-177.2,7344.6-646.6c293.1-270.1,733.7-312.3,1063.3-101.6c477,306.5,551.7,967.5,157.1,1364C8342.7,838.1,8034.3,924.3,7735.4,851.5z M8128.2,451.1C8358.1,355.3,8480.7,89,8406-156.2c-28.7-95.8-149.4-233.7-252.9-289.3c-109.2-57.5-316.1-57.5-425.3,0c-364,191.6-364,710.7,1.9,879.3C7842.7,487.5,8022.8,495.2,8128.2,451.1z"/></g></g>
</svg>