<?xml version="1.0" encoding="UTF-8" standalone="no"?>
<!DOCTYPE svg PUBLIC "-//W3C//DTD SVG 20010904//EN"
              "http://www.w3.org/TR/2001/REC-SVG-20010904/DTD/svg10.dtd">

<svg xmlns="http://www.w3.org/2000/svg"
     width="130.952mm" height="121.958mm"
     viewBox="0 0 495 461">
  <path id="Auswahl"
        fill="currentColor" stroke="currentColor" stroke-width="1"
        d="M 237.00,0.23
           C 237.00,0.23 250.00,0.23 250.00,0.23
             266.99,0.03 281.01,7.68 291.48,21.00
             295.55,26.16 300.47,35.93 303.86,42.00
             303.86,42.00 321.86,75.00 321.86,75.00
             321.86,75.00 358.31,143.00 358.31,143.00
             358.31,143.00 397.69,214.00 397.69,214.00
             397.69,214.00 445.86,303.00 445.86,303.00
             445.86,303.00 478.78,364.00 478.78,364.00
             489.01,383.27 495.26,388.17 495.00,411.00
             494.68,438.02 470.78,460.96 444.00,461.00
             444.00,461.00 102.00,461.00 102.00,461.00
             102.00,461.00 68.00,461.00 68.00,461.00
             68.00,461.00 50.00,461.00 50.00,461.00
             33.63,460.92 17.72,451.63 8.86,438.00
             6.06,433.69 4.00,429.89 2.36,425.00
             -0.44,416.70 -0.10,412.53 0.00,404.00
             0.17,390.07 8.59,377.81 15.14,366.00
             15.14,366.00 44.22,312.00 44.22,312.00
             44.22,312.00 65.69,273.00 65.69,273.00
             65.69,273.00 119.31,174.00 119.31,174.00
             119.31,174.00 166.74,87.00 166.74,87.00
             166.74,87.00 185.69,52.00 185.69,52.00
             199.10,27.27 206.54,7.04 237.00,0.23 Z
           M 242.00,43.34
           C 232.15,46.00 230.97,51.82 226.74,60.00
             226.74,60.00 216.58,78.00 216.58,78.00
             216.58,78.00 194.31,118.00 194.31,118.00
             194.31,118.00 184.69,137.00 184.69,137.00
             184.69,137.00 159.69,182.00 159.69,182.00
             159.69,182.00 145.32,208.00 145.32,208.00
             145.32,208.00 135.69,227.00 135.69,227.00
             135.69,227.00 102.31,287.00 102.31,287.00
             102.31,287.00 94.69,302.00 94.69,302.00
             94.69,302.00 64.22,357.00 64.22,357.00
             64.22,357.00 52.58,379.00 52.58,379.00
             50.25,383.13 45.45,391.59 44.54,396.00
             42.64,405.27 49.36,412.93 58.00,415.10
             61.84,416.07 64.13,415.99 68.00,416.00
             68.00,416.00 361.00,416.00 361.00,416.00
             361.00,416.00 424.00,416.00 424.00,416.00
             433.21,415.99 442.44,414.81 446.19,405.00
             447.13,402.53 447.75,399.65 447.44,397.00
             446.72,390.69 438.44,377.17 435.26,371.00
             435.26,371.00 402.31,311.00 402.31,311.00
             402.31,311.00 379.69,268.00 379.69,268.00
             379.69,268.00 357.31,228.00 357.31,228.00
             357.31,228.00 346.69,207.00 346.69,207.00
             346.69,207.00 312.31,145.00 312.31,145.00
             312.31,145.00 299.00,119.00 299.00,119.00
             299.00,119.00 268.42,64.00 268.42,64.00
             260.96,50.79 260.41,41.21 242.00,43.34 Z
           M 242.00,147.56
           C 257.05,144.92 264.98,151.87 265.00,167.00
             265.00,167.00 265.00,278.00 265.00,278.00
             264.87,287.39 258.84,295.44 249.00,295.96
             237.60,296.55 230.15,289.31 230.00,278.00
             230.00,278.00 230.00,181.00 230.00,181.00
             230.00,168.08 226.75,152.89 242.00,147.56 Z
           M 240.00,314.46
           C 247.49,313.43 255.14,313.93 262.00,317.38
             270.08,321.43 273.92,327.00 277.42,335.00
             279.27,339.21 281.01,342.33 281.70,347.00
             284.27,364.38 273.74,382.83 256.00,386.71
             253.10,387.35 248.93,388.03 246.00,387.82
             229.96,386.65 216.04,375.25 213.53,359.00
             212.55,354.35 213.06,348.65 213.53,344.00
             216.06,327.86 223.70,318.09 240.00,314.46 Z" />
</svg>
