<?xml version="1.0" encoding="UTF-8" standalone="no"?>
<!DOCTYPE svg PUBLIC "-//W3C//DTD SVG 20010904//EN"
              "http://www.w3.org/TR/2001/REC-SVG-20010904/DTD/svg10.dtd">

<svg xmlns="http://www.w3.org/2000/svg"
     width="135.45mm" height="135.45mm"
     viewBox="0 0 512 512">
  <path id="light"
        fill="#fcaf77" stroke="#fcaf77" stroke-width="1"
        d="M 255.00,45.59
           C 313.55,46.07 364.11,83.97 383.31,139.00
             390.07,158.39 390.03,171.09 390.00,191.00
             389.96,218.87 376.36,250.82 358.72,272.00
             358.72,272.00 329.30,302.00 329.30,302.00
             319.12,313.89 311.97,328.74 308.66,344.00
             308.66,344.00 305.43,366.96 305.43,366.96
             302.36,373.03 296.88,372.99 291.00,373.00
             291.00,373.00 219.00,373.00 219.00,373.00
             213.25,372.92 208.54,371.99 206.26,365.98
             206.26,365.98 203.55,345.00 203.55,345.00
             200.39,329.27 192.53,312.99 181.83,301.00
             181.83,301.00 152.46,271.00 152.46,271.00
             135.47,250.06 122.04,218.26 122.00,191.00
             121.97,170.86 121.74,160.84 128.03,141.00
             140.44,101.83 171.55,68.94 210.00,54.42
             228.00,47.63 236.41,47.10 255.00,45.59 Z
           M 247.00,59.28
           C 235.64,60.93 228.00,61.89 217.00,66.06
             189.03,76.67 169.19,96.28 156.26,123.00
             150.52,134.86 145.73,153.82 146.02,167.00
             146.20,175.37 152.02,182.73 161.00,181.75
             166.38,181.16 169.96,177.22 170.79,172.00
             170.79,172.00 172.46,156.00 172.46,156.00
             174.78,143.71 179.81,132.18 187.04,122.00
             198.20,106.27 214.46,94.72 233.00,89.43
             238.54,87.85 244.26,86.72 250.00,86.17
             254.57,85.73 258.97,86.62 262.88,83.49
             268.23,79.19 270.84,66.25 262.88,61.01
             258.85,58.33 251.70,58.85 247.00,59.28 Z" />
  <path id="lines"
        fill="#3b2102" stroke="#3b2102" stroke-width="6"
        d="M 180.00,365.00
           C 184.50,363.36 182.30,356.69 181.73,353.00
             179.92,341.34 174.47,329.35 167.35,320.00
             167.35,320.00 130.90,281.00 130.90,281.00
             112.50,256.70 98.05,220.79 98.00,190.00
             98.00,190.00 98.00,171.00 98.00,171.00
             98.16,157.45 103.57,135.68 108.60,123.00
             128.20,73.60 168.29,37.50 220.00,24.63
             229.44,22.28 241.31,20.02 251.00,20.00
             251.00,20.00 262.00,20.00 262.00,20.00
             272.51,20.05 287.82,23.08 298.00,26.00
             341.69,38.54 378.74,68.97 398.74,110.00
             411.77,136.73 415.34,160.64 415.00,190.00
             414.63,221.35 399.92,258.66 380.55,283.00
             380.55,283.00 344.16,322.00 344.16,322.00
             336.93,331.97 332.46,343.87 330.73,356.00
             330.05,360.74 328.49,365.98 333.00,369.00
             328.76,384.97 330.00,391.89 330.00,408.00
             330.00,414.95 330.53,422.25 328.71,429.00
             326.95,435.55 323.66,440.75 318.71,445.38
             316.62,447.34 312.23,450.13 311.02,452.21
             309.59,454.67 310.03,460.06 310.00,463.00
             309.76,483.16 294.56,495.97 275.00,496.00
             275.00,496.00 237.00,496.00 237.00,496.00
             217.91,495.91 203.23,482.34 203.00,463.00
             202.97,460.06 203.41,454.67 201.98,452.21
             200.73,450.05 196.31,447.33 194.17,445.38
             190.16,441.73 186.39,436.20 184.77,431.00
             181.85,421.62 183.02,397.96 183.00,387.00
             182.98,376.06 180.46,374.90 180.00,365.00 Z
           M 244.00,45.28
           C 221.04,48.66 202.68,54.15 183.00,67.08
             128.77,102.71 108.10,169.33 128.52,230.00
             134.07,246.52 144.53,264.07 156.17,277.00
             156.17,277.00 180.56,301.00 180.56,301.00
             191.55,314.02 198.28,326.37 202.11,343.00
             202.11,343.00 205.65,366.98 205.65,366.98
             208.45,373.01 214.04,373.92 220.00,374.00
             220.00,374.00 290.00,374.00 290.00,374.00
             296.07,373.99 302.40,373.95 305.86,367.96
             308.20,363.91 308.34,349.70 309.89,343.00
             313.72,326.37 320.45,314.02 331.44,301.00
             331.44,301.00 357.56,275.00 357.56,275.00
             376.70,252.31 390.95,220.04 391.00,190.00
             391.04,167.03 389.81,150.60 380.57,129.00
             357.79,75.70 302.32,39.86 244.00,45.28 Z
           M 242.00,62.43
           C 246.32,61.89 258.26,61.20 261.80,63.31
             267.85,66.91 267.25,79.14 261.80,82.99
             258.69,85.18 255.52,84.81 252.00,85.17
             245.98,85.77 239.85,86.59 234.00,88.15
             216.64,92.79 199.87,103.80 188.89,118.00
             179.93,129.58 173.78,142.48 171.44,157.00
             170.35,163.75 171.32,175.99 164.90,179.55
             162.51,180.87 159.61,181.14 157.00,180.35
             148.28,177.70 148.92,169.30 149.00,162.00
             149.09,154.54 150.78,147.19 152.63,140.00
             163.73,96.87 199.18,69.43 242.00,62.43 Z
           M 304.00,400.00
           C 304.00,400.00 257.00,401.00 257.00,401.00
             257.00,401.00 209.00,400.00 209.00,400.00
             209.00,408.19 206.21,422.24 216.00,425.35
             218.19,426.04 220.73,425.99 223.00,426.00
             223.00,426.00 279.00,426.00 279.00,426.00
             285.23,426.00 296.05,427.32 300.57,422.61
             305.07,417.92 304.00,406.26 304.00,400.00 Z
           M 285.00,455.00
           C 285.00,455.00 228.00,455.00 228.00,455.00
             228.11,459.16 228.13,462.43 232.11,464.86
             235.09,466.69 239.58,466.96 243.00,467.00
             243.00,467.00 269.00,467.00 269.00,467.00
             272.77,466.95 277.68,466.65 280.79,464.28
             283.98,461.84 284.60,458.73 285.00,455.00 Z" />
</svg>
