<?xml version="1.0" encoding="UTF-8" standalone="no"?>
<!DOCTYPE svg PUBLIC "-//W3C//DTD SVG 20010904//EN"
              "http://www.w3.org/TR/2001/REC-SVG-20010904/DTD/svg10.dtd">

<svg xmlns="http://www.w3.org/2000/svg"
     width="5.69in" height="5.69in"
     viewBox="0 0 1707 1707">
  <path id="circle"
        fill="currentColor" stroke="currentColor" stroke-width="1"
        d="M 852.00,697.00
           C 855.32,689.98 866.23,681.10 871.91,675.00
             871.91,675.00 919.99,625.00 919.99,625.00
             919.99,625.00 929.04,615.00 929.04,615.00
             929.04,615.00 945.96,598.00 945.96,598.00
             945.96,598.00 980.04,562.00 980.04,562.00
             980.04,562.00 996.96,545.00 996.96,545.00
             996.96,545.00 1006.01,535.00 1006.01,535.00
             1006.01,535.00 1023.83,517.00 1023.83,517.00
             1023.83,517.00 1046.91,493.00 1046.91,493.00
             1063.53,475.16 1083.24,455.16 1106.28,445.78
             1171.55,419.23 1249.52,476.43 1250.00,541.00
             1250.07,551.25 1249.57,561.10 1246.63,571.01
             1244.65,577.68 1242.35,581.97 1239.08,588.00
             1225.31,613.44 1209.24,626.45 1190.09,647.00
             1190.09,647.00 1109.04,732.00 1109.04,732.00
             1109.04,732.00 1068.04,775.00 1068.04,775.00
             1068.04,775.00 1058.99,785.00 1058.99,785.00
             1058.99,785.00 1018.96,827.00 1018.96,827.00
             1018.96,827.00 1005.09,841.00 1005.09,841.00
             1005.09,841.00 992.01,855.00 992.01,855.00
             990.65,856.41 988.04,858.81 988.04,860.91
             988.04,863.14 991.49,865.66 993.00,867.09
             993.00,867.09 1007.00,880.96 1007.00,880.96
             1007.00,880.96 1050.00,921.96 1050.00,921.96
             1050.00,921.96 1065.00,936.00 1065.00,936.00
             1065.00,936.00 1080.00,950.04 1080.00,950.04
             1080.00,950.04 1123.00,991.04 1123.00,991.04
             1123.00,991.04 1166.00,1032.04 1166.00,1032.04
             1166.00,1032.04 1180.00,1045.91 1180.00,1045.91
             1200.82,1065.31 1225.58,1088.50 1240.20,1113.00
             1246.84,1124.13 1253.84,1139.89 1254.00,1153.00
             1254.00,1153.00 1254.00,1168.00 1254.00,1168.00
             1253.98,1183.20 1247.23,1198.32 1239.24,1211.00
             1235.78,1216.49 1227.09,1228.39 1222.82,1232.91
             1208.36,1248.21 1186.54,1259.42 1166.00,1263.55
             1156.69,1265.42 1147.45,1265.11 1138.00,1265.00
             1127.00,1264.87 1105.00,1259.31 1096.00,1253.24
             1096.00,1253.24 1056.00,1216.09 1056.00,1216.09
             1056.00,1216.09 968.00,1133.09 968.00,1133.09
             968.00,1133.09 933.00,1100.09 933.00,1100.09
             933.00,1100.09 921.00,1089.00 921.00,1089.00
             921.00,1089.00 871.00,1042.00 871.00,1042.00
             871.00,1042.00 857.00,1028.84 857.00,1028.84
             855.47,1027.51 853.15,1025.04 851.00,1025.04
             848.79,1025.05 846.48,1027.58 845.00,1029.01
             845.00,1029.01 831.01,1043.00 831.01,1043.00
             831.01,1043.00 796.96,1079.00 796.96,1079.00
             796.96,1079.00 774.72,1102.00 774.72,1102.00
             774.72,1102.00 754.09,1123.00 754.09,1123.00
             754.09,1123.00 680.04,1200.00 680.04,1200.00
             680.04,1200.00 671.96,1209.00 671.96,1209.00
             671.96,1209.00 656.09,1225.00 656.09,1225.00
             636.76,1245.75 614.98,1267.65 587.00,1275.96
             575.25,1279.46 565.04,1279.14 553.00,1279.00
             516.11,1278.56 476.06,1247.55 461.00,1215.00
             455.85,1203.85 452.02,1193.43 452.00,1181.00
             451.98,1165.84 450.83,1158.84 455.75,1144.00
             462.60,1123.30 477.36,1106.62 491.91,1091.00
             491.91,1091.00 530.00,1051.00 530.00,1051.00
             530.00,1051.00 560.04,1019.00 560.04,1019.00
             560.04,1019.00 642.04,933.00 642.04,933.00
             642.04,933.00 674.96,899.00 674.96,899.00
             674.96,899.00 685.00,888.00 685.00,888.00
             685.00,888.00 716.00,855.00 716.00,855.00
             708.41,850.92 701.46,842.10 695.00,836.09
             695.00,836.09 653.00,796.04 653.00,796.04
             653.00,796.04 623.00,767.96 623.00,767.96
             623.00,767.96 559.00,706.91 559.00,706.91
             559.00,706.91 519.00,668.58 519.00,668.58
             519.00,668.58 504.00,654.01 504.00,654.01
             504.00,654.01 493.05,643.99 493.05,643.99
             493.05,643.99 486.74,636.01 486.74,636.01
             486.74,636.01 480.45,629.72 480.45,629.72
             480.45,629.72 470.98,617.28 470.98,617.28
             466.21,611.06 457.45,599.80 457.00,592.00
             453.03,588.96 451.01,579.74 449.98,574.84
             445.96,555.72 447.94,540.65 455.14,522.59
             458.29,514.67 461.08,510.99 465.67,504.00
             468.28,500.02 476.13,489.27 479.13,486.04
             485.24,479.46 492.66,474.11 500.28,469.48
             524.68,454.67 552.08,449.27 580.09,455.83
             586.98,457.45 600.26,461.88 606.00,465.76
             613.00,470.49 621.68,480.02 628.00,485.91
             628.00,485.91 652.00,508.09 652.00,508.09
             652.00,508.09 664.00,519.83 664.00,519.83
             664.00,519.83 768.00,617.91 768.00,617.91
             768.00,617.91 820.00,666.91 820.00,666.91
             820.00,666.91 852.00,697.00 852.00,697.00 Z" />
  <path id="cross"
        fill="currentColor" stroke="currentColor" stroke-width="1"
        d="M 730.00,0.11
           C 730.00,0.11 758.00,0.11 758.00,0.11
             758.00,0.11 808.00,0.11 808.00,0.11
             808.00,0.11 958.00,0.11 958.00,0.11
             958.00,0.11 991.00,3.73 991.00,3.73
             1013.15,6.92 1035.27,11.26 1057.00,16.63
             1131.38,34.99 1191.44,57.15 1259.00,93.69
             1353.50,144.80 1430.53,201.68 1501.72,283.00
             1587.75,381.28 1649.03,496.00 1683.15,622.00
             1690.78,650.18 1696.58,677.21 1701.41,706.00
             1703.32,717.36 1706.98,738.13 1707.00,749.00
             1707.00,749.00 1707.00,953.00 1707.00,953.00
             1707.00,953.00 1703.27,983.00 1703.27,983.00
             1699.93,1006.16 1695.28,1029.24 1689.88,1052.00
             1669.31,1138.76 1639.06,1214.55 1594.85,1292.00
             1539.31,1389.29 1463.99,1473.26 1375.00,1541.12
             1289.25,1606.51 1183.07,1656.97 1079.00,1685.15
             1051.70,1692.54 1024.00,1699.15 996.00,1703.27
             986.08,1704.73 974.96,1706.98 965.00,1707.00
             965.00,1707.00 820.00,1707.00 820.00,1707.00
             820.00,1707.00 740.00,1707.00 740.00,1707.00
             740.00,1707.00 714.00,1703.41 714.00,1703.41
             714.00,1703.41 665.00,1693.65 665.00,1693.65
             609.51,1680.92 562.43,1666.35 510.00,1643.85
             291.64,1550.12 116.73,1364.27 40.00,1139.00
             25.79,1097.28 13.89,1055.54 6.59,1012.00
             4.47,999.40 0.02,969.83 0.00,958.00
             0.00,958.00 0.00,744.00 0.00,744.00
             0.02,729.62 8.15,687.50 11.58,672.00
             23.99,615.80 40.44,563.92 63.15,511.00
             104.90,413.74 163.51,324.36 238.00,249.00
             238.00,249.00 247.09,239.17 247.09,239.17
             320.48,167.90 403.02,111.00 496.00,68.31
             565.80,36.26 654.13,12.84 730.00,0.11 Z
           M 831.00,156.14
           C 824.93,157.16 821.99,156.99 816.00,157.00
             816.00,157.00 785.00,159.43 785.00,159.43
             736.67,166.38 681.41,179.54 635.00,194.67
             536.35,226.83 447.08,277.21 371.00,348.09
             312.22,402.85 257.88,480.90 224.31,554.00
             189.75,629.26 168.09,700.37 159.83,783.00
             159.83,783.00 157.00,824.00 157.00,824.00
             157.00,824.00 156.00,839.00 156.00,839.00
             156.00,839.00 156.00,865.00 156.00,865.00
             156.00,865.00 156.96,877.00 156.96,877.00
             156.96,877.00 156.96,889.00 156.96,889.00
             156.96,889.00 157.91,899.00 157.91,899.00
             157.91,899.00 160.84,932.00 160.84,932.00
             164.67,967.81 171.93,1003.32 181.58,1038.00
             224.68,1193.04 320.91,1330.97 453.00,1423.28
             505.29,1459.82 557.20,1486.20 617.00,1508.05
             654.07,1521.60 692.34,1531.27 731.00,1539.00
             755.91,1543.98 780.70,1547.36 806.00,1549.09
             806.00,1549.09 816.00,1550.00 816.00,1550.00
             897.03,1550.94 978.07,1543.75 1056.00,1520.28
             1089.56,1510.17 1121.52,1496.50 1153.00,1481.26
             1199.74,1458.63 1244.94,1432.57 1286.00,1400.58
             1382.82,1325.14 1460.29,1216.73 1503.58,1102.00
             1523.01,1050.47 1538.31,989.77 1544.16,935.00
             1544.16,935.00 1547.09,904.00 1547.09,904.00
             1547.09,904.00 1548.00,893.00 1548.00,893.00
             1548.00,893.00 1549.00,875.00 1549.00,875.00
             1549.00,875.00 1549.00,825.00 1549.00,825.00
             1549.00,825.00 1548.00,807.00 1548.00,807.00
             1548.00,807.00 1545.17,775.00 1545.17,775.00
             1541.47,738.05 1534.36,701.89 1524.88,666.00
             1495.88,556.16 1438.48,455.01 1360.04,373.00
             1360.04,373.00 1350.00,362.01 1350.00,362.01
             1350.00,362.01 1340.00,352.96 1340.00,352.96
             1260.19,276.62 1168.65,224.48 1064.00,190.33
             1008.04,172.07 934.80,157.68 876.00,157.00
             876.00,157.00 862.00,156.14 862.00,156.14
             862.00,156.14 831.00,156.14 831.00,156.14 Z" />
</svg>
