<?xml version="1.0" encoding="UTF-8" standalone="no"?>
<!DOCTYPE svg PUBLIC "-//W3C//DTD SVG 20010904//EN"
              "http://www.w3.org/TR/2001/REC-SVG-20010904/DTD/svg10.dtd">

<svg xmlns="http://www.w3.org/2000/svg"
     width="144.47mm" height="144.47mm"
     viewBox="0 0 256 256">
  <path id="Auswahl"
        fill="currentColor" stroke="currentColor" stroke-width="1"
        d="M 112.00,0.21
           C 112.00,0.21 136.00,0.21 136.00,0.21
             150.70,0.02 169.84,5.28 183.00,11.76
             199.73,19.98 213.47,29.73 225.70,44.00
             265.20,90.09 266.32,157.69 230.37,206.00
             220.69,219.00 207.10,231.07 193.00,239.13
             176.77,248.41 154.82,255.97 136.00,256.00
             136.00,256.00 118.00,256.00 118.00,256.00
             110.19,255.90 99.55,253.58 92.00,251.42
             52.54,240.16 20.23,209.80 6.69,171.00
             -0.30,150.94 -0.10,139.58 0.00,119.00
             0.04,111.18 2.12,100.55 4.29,93.00
             13.44,61.15 33.38,34.48 62.00,17.45
             78.83,7.44 92.97,3.54 112.00,0.21 Z
           M 118.00,23.29
           C 77.42,29.48 46.29,49.89 30.45,89.00
             7.19,146.45 39.31,211.78 99.00,228.86
             105.97,230.85 115.78,232.91 123.00,233.00
             140.62,233.20 155.92,230.96 172.00,223.25
             187.26,215.94 198.06,208.17 208.92,195.00
             243.07,153.56 240.81,90.91 201.96,53.09
             189.13,40.59 173.17,31.72 156.00,26.86
             143.70,23.38 130.75,22.09 118.00,23.29 Z
           M 131.87,124.00
           C 131.87,124.00 161.00,124.00 161.00,124.00
             165.10,124.00 171.34,123.50 174.91,125.45
             181.62,129.13 182.39,139.43 176.66,144.35
             173.27,147.26 169.16,146.99 165.00,147.00
             165.00,147.00 130.00,147.00 130.00,147.00
             125.16,147.00 118.20,147.70 114.10,144.99
             108.90,141.56 109.01,136.52 109.00,131.00
             109.00,131.00 109.00,91.00 109.00,91.00
             109.01,83.61 110.08,76.75 119.00,75.57
             124.82,74.80 130.26,78.21 131.87,84.00
             131.87,84.00 131.87,98.00 131.87,98.00
             131.87,98.00 131.87,124.00 131.87,124.00 Z" />
</svg>
