<?xml version="1.0" encoding="UTF-8" standalone="no"?>
<!DOCTYPE svg PUBLIC "-//W3C//DTD SVG 20010904//EN"
              "http://www.w3.org/TR/2001/REC-SVG-20010904/DTD/svg10.dtd">

<svg xmlns="http://www.w3.org/2000/svg"
     width="1.27778in" height="1.27778in"
     viewBox="0 0 92 92">
  <path id="Auswahl"
        fill="currentColor" stroke="currentColor" stroke-width="6"
        d="M 5.15,0.74
           C 10.54,-0.65 23.76,0.00 30.00,0.00
             30.00,0.00 79.00,0.00 79.00,0.00
             82.63,0.01 90.00,-0.58 89.44,5.04
             89.12,8.20 83.60,15.17 81.58,18.00
             81.58,18.00 60.33,48.00 60.33,48.00
             56.68,54.30 58.01,67.49 58.00,75.00
             57.98,86.19 55.26,85.12 45.00,89.00
             42.59,89.91 38.09,91.86 35.74,90.00
             33.63,88.34 34.00,83.46 34.00,81.00
             34.00,81.00 34.00,58.00 34.00,58.00
             33.97,55.56 33.96,53.35 33.12,51.00
             31.40,46.15 15.90,25.65 11.86,20.00
             9.56,16.79 1.53,6.93 2.71,3.23
             3.23,1.57 4.00,1.54 5.15,0.74 Z
           M 86.00,4.00
           C 86.00,4.00 6.00,4.00 6.00,4.00
             9.65,11.49 22.90,29.28 28.42,37.00
             33.74,44.44 37.87,48.44 38.00,58.00
             38.00,58.00 38.00,87.00 38.00,87.00
             38.00,87.00 54.00,82.00 54.00,82.00
             54.00,74.41 53.08,56.27 55.40,50.00
             57.07,45.47 61.42,40.04 64.29,36.00
             70.08,27.87 82.05,12.10 86.00,4.00 Z" />
</svg>
