<?xml version="1.0" encoding="UTF-8" standalone="no"?>
<!DOCTYPE svg PUBLIC "-//W3C//DTD SVG 20010904//EN"
              "http://www.w3.org/TR/2001/REC-SVG-20010904/DTD/svg10.dtd">

<svg xmlns="http://www.w3.org/2000/svg"
     width="3.175mm" height="3.175mm"
     viewBox="0 0 256 256">
  <path id="Auswahl"
        fill="none" stroke="black" stroke-width="1"
        d="M 124.00,20.42
           C 130.07,19.70 143.76,21.34 150.00,22.60
             198.56,32.37 231.67,72.13 235.09,121.00
             235.09,121.00 235.82,128.00 235.82,128.00
             235.82,128.00 235.09,135.00 235.09,135.00
             231.47,186.85 194.16,228.29 142.00,234.71
             109.08,238.77 75.97,228.21 52.04,204.91
             15.26,169.10 10.33,109.06 39.03,67.00
             53.04,46.46 74.03,31.19 98.00,24.43
             106.71,21.97 115.17,21.68 124.00,20.42 Z
           M 106.00,45.00
           C 97.65,46.29 89.14,50.39 82.00,54.81
             45.54,77.42 31.50,125.13 49.31,164.00
             62.29,192.33 92.36,213.95 124.00,214.00
             124.00,214.00 134.00,214.00 134.00,214.00
             142.70,213.89 152.93,210.99 161.00,207.80
             169.87,204.28 177.83,199.30 184.99,193.00
             225.60,157.26 223.59,92.98 181.00,59.67
             172.65,53.13 160.56,46.63 150.00,45.00
             150.00,45.00 150.00,65.00 150.00,65.00
             150.00,65.00 106.00,65.00 106.00,65.00
             106.00,65.00 106.00,45.00 106.00,45.00 Z
           M 69.00,113.70
           C 73.15,112.76 78.08,112.47 82.00,114.45
             94.59,120.84 92.77,144.05 73.00,142.96
             57.97,142.13 53.21,120.89 69.00,113.70 Z
           M 176.00,113.65
           C 180.22,112.78 185.06,112.45 188.98,114.57
             201.54,121.33 199.03,143.95 180.00,142.96
             164.15,142.13 160.25,120.28 176.00,113.65 Z
           M 87.00,151.48
           C 108.16,149.48 110.26,178.13 93.00,181.66
             71.96,185.95 65.93,156.56 87.00,151.48 Z
           M 164.00,151.54
           C 184.88,149.03 188.16,177.68 171.00,181.61
             155.68,185.12 145.70,168.64 154.65,157.10
             157.21,153.79 160.14,152.67 164.00,151.54 Z
           M 124.00,166.53
           C 129.51,165.64 134.59,166.09 138.79,170.22
             147.50,178.80 142.80,193.88 131.00,196.47
             112.78,200.46 104.51,172.78 124.00,166.53 Z" />
</svg>
